<svg width="225" height="32" viewBox="0 0 225 32" fill="none" xmlns="http://www.w3.org/2000/svg">
<g clip-path="url(#clip0_5937_40503)">
<path d="M0 16C0 7.16344 7.16344 0 16 0H63C71.8366 0 79 7.16344 79 16C79 24.8366 71.8366 32 63 32H16C7.16344 32 0 24.8366 0 16Z" fill="url(#paint0_linear_5937_40503)"/>
<path d="M39.296 21V9.544H43.232C43.9253 9.544 44.5547 9.69333 45.12 9.992C45.6853 10.28 46.1333 10.6907 46.464 11.224C46.8053 11.7467 46.976 12.3547 46.976 13.048C46.976 13.7307 46.8053 14.3387 46.464 14.872C46.1333 15.4053 45.6853 15.8213 45.12 16.12C44.5547 16.408 43.9253 16.552 43.232 16.552H41.056V21H39.296ZM41.056 14.888H43.28C43.696 14.888 44.048 14.8027 44.336 14.632C44.624 14.4507 44.8427 14.2213 44.992 13.944C45.152 13.656 45.232 13.3573 45.232 13.048C45.232 12.7387 45.152 12.4453 44.992 12.168C44.8427 11.8907 44.624 11.6613 44.336 11.48C44.048 11.2987 43.696 11.208 43.28 11.208H41.056V14.888ZM48.5865 21V9.544H50.3145V21H48.5865ZM55.3118 21.256C54.3091 21.256 53.5518 20.9573 53.0398 20.36C52.5384 19.752 52.2878 18.9307 52.2878 17.896V12.84H54.0158V17.656C54.0158 18.3387 54.1758 18.8453 54.4958 19.176C54.8264 19.5067 55.2371 19.672 55.7278 19.672C56.1758 19.672 56.5598 19.56 56.8798 19.336C57.1998 19.1013 57.4451 18.7973 57.6158 18.424C57.7971 18.0507 57.8878 17.6507 57.8878 17.224V12.84H59.5998V21H57.9838V19.896H57.8878C57.7384 20.152 57.5304 20.3813 57.2638 20.584C56.9971 20.7867 56.6984 20.9467 56.3678 21.064C56.0371 21.192 55.6851 21.256 55.3118 21.256ZM64.5309 21.256C63.8802 21.256 63.3149 21.16 62.8349 20.968C62.3549 20.7653 61.9602 20.4987 61.6509 20.168C61.3415 19.8267 61.1122 19.4587 60.9629 19.064L62.5149 18.392C62.7069 18.8293 62.9789 19.1653 63.3309 19.4C63.6935 19.624 64.1095 19.736 64.5789 19.736C65.0055 19.736 65.3735 19.6613 65.6829 19.512C65.9922 19.352 66.1469 19.096 66.1469 18.744C66.1469 18.52 66.0722 18.3387 65.9229 18.2C65.7842 18.0507 65.5922 17.928 65.3469 17.832C65.1122 17.736 64.8402 17.6507 64.5309 17.576L63.5549 17.352C63.1709 17.256 62.8029 17.1067 62.4509 16.904C62.1095 16.6907 61.8322 16.424 61.6189 16.104C61.4055 15.784 61.2989 15.4053 61.2989 14.968C61.2989 14.4773 61.4375 14.056 61.7149 13.704C62.0029 13.3413 62.3869 13.064 62.8669 12.872C63.3469 12.68 63.8642 12.584 64.4189 12.584C64.9309 12.584 65.3949 12.6533 65.8109 12.792C66.2375 12.92 66.6055 13.1173 66.9149 13.384C67.2349 13.64 67.4855 13.96 67.6669 14.344L66.1789 15.016C65.9975 14.6533 65.7522 14.4027 65.4429 14.264C65.1335 14.1147 64.7975 14.04 64.4349 14.04C64.0295 14.04 63.6882 14.1253 63.4109 14.296C63.1442 14.456 63.0109 14.6693 63.0109 14.936C63.0109 15.2133 63.1282 15.432 63.3629 15.592C63.6082 15.752 63.9069 15.88 64.2589 15.976L65.4429 16.264C66.2535 16.4667 66.8615 16.776 67.2669 17.192C67.6722 17.5973 67.8749 18.0933 67.8749 18.68C67.8749 19.2027 67.7255 19.6613 67.4269 20.056C67.1282 20.44 66.7229 20.7387 66.2109 20.952C65.7095 21.1547 65.1495 21.256 64.5309 21.256Z" fill="black"/>
<circle cx="16" cy="16" r="16" fill="white"/>
<path d="M16 6.99902C10.4767 6.99902 6 11.439 6 16.9174V21.6657H7.84333V21.1924C7.84333 18.9707 9.65833 17.169 11.8983 17.169C14.1383 17.169 15.9533 18.9707 15.9533 21.1924V21.6657H17.7967V21.1924C17.7967 17.9607 15.155 15.3424 11.8983 15.3424C10.63 15.3424 9.455 15.739 8.49333 16.4157C9.5 14.4307 11.5733 13.069 13.9667 13.069C17.3483 13.069 20.09 15.789 20.09 19.1424V21.6657H21.9333V19.1424C21.9333 14.779 18.3667 11.2407 13.9667 11.2407C11.9883 11.2407 10.1783 11.9557 8.785 13.1407C10.1533 10.5757 12.87 8.82736 16 8.82736C20.505 8.82736 24.1567 12.449 24.1567 16.9174V21.6657H26V16.9174C26 11.439 21.5233 6.99902 16 6.99902Z" fill="black"/>
</g>
<path d="M206.609 24.6018V7.00513H210.247L215.383 20.3993H215.531L220.692 7.00513H224.329V24.6018H221.675V14.6484L221.822 11.5272H221.675L216.538 24.6018H214.4L209.264 11.5272H209.116L209.264 14.6484V24.6018H206.609Z" fill="white"/>
<path d="M194.312 24.6018V7.00513H197.016V22.0459H204.585V24.6018H194.312Z" fill="white"/>
<path d="M181.523 24.6018V7.00513H184.178V17.3764L189.486 12.0679H192.779V12.2153L187.938 17.0077L192.951 24.4544V24.6018H189.806L186.07 18.851L184.178 20.7188V24.6018H181.523Z" fill="white"/>
<path d="M173.406 24.995C172.111 24.995 170.973 24.7001 169.99 24.1102C169.006 23.5204 168.236 22.7258 167.679 21.7263C167.122 20.7105 166.844 19.58 166.844 18.3348C166.844 17.0896 167.122 15.9672 167.679 14.9678C168.236 13.952 169.006 13.1491 169.99 12.5593C170.973 11.9695 172.111 11.6746 173.406 11.6746C174.684 11.6746 175.814 11.9777 176.797 12.5839C177.78 13.1737 178.55 13.9684 179.107 14.9678C179.664 15.9672 179.943 17.0896 179.943 18.3348C179.943 19.58 179.664 20.7105 179.107 21.7263C178.55 22.7258 177.78 23.5204 176.797 24.1102C175.814 24.7001 174.684 24.995 173.406 24.995ZM173.406 22.5619C174.094 22.5619 174.733 22.3981 175.323 22.0704C175.912 21.7263 176.388 21.243 176.748 20.6204C177.125 19.9814 177.313 19.2195 177.313 18.3348C177.313 17.45 177.125 16.6963 176.748 16.0737C176.388 15.4348 175.912 14.9514 175.323 14.6237C174.733 14.2797 174.094 14.1076 173.406 14.1076C172.718 14.1076 172.07 14.2797 171.464 14.6237C170.874 14.9514 170.391 15.4348 170.014 16.0737C169.654 16.6963 169.473 17.45 169.473 18.3348C169.473 19.2195 169.654 19.9814 170.014 20.6204C170.391 21.243 170.882 21.7263 171.489 22.0704C172.095 22.3981 172.734 22.5619 173.406 22.5619Z" fill="white"/>
<path d="M159.257 24.995C157.963 24.995 156.824 24.7001 155.841 24.1102C154.858 23.5204 154.088 22.7258 153.531 21.7263C152.974 20.7105 152.695 19.58 152.695 18.3348C152.695 17.0896 152.974 15.9672 153.531 14.9678C154.088 13.952 154.858 13.1491 155.841 12.5593C156.824 11.9695 157.963 11.6746 159.257 11.6746C160.535 11.6746 161.666 11.9777 162.649 12.5839C163.632 13.1737 164.402 13.9684 164.959 14.9678C165.516 15.9672 165.795 17.0896 165.795 18.3348C165.795 19.58 165.516 20.7105 164.959 21.7263C164.402 22.7258 163.632 23.5204 162.649 24.1102C161.666 24.7001 160.535 24.995 159.257 24.995ZM159.257 22.5619C159.945 22.5619 160.584 22.3981 161.174 22.0704C161.764 21.7263 162.239 21.243 162.6 20.6204C162.976 19.9814 163.165 19.2195 163.165 18.3348C163.165 17.45 162.976 16.6963 162.6 16.0737C162.239 15.4348 161.764 14.9514 161.174 14.6237C160.584 14.2797 159.945 14.1076 159.257 14.1076C158.569 14.1076 157.922 14.2797 157.316 14.6237C156.726 14.9514 156.243 15.4348 155.866 16.0737C155.505 16.6963 155.325 17.45 155.325 18.3348C155.325 19.2195 155.505 19.9814 155.866 20.6204C156.243 21.243 156.734 21.7263 157.34 22.0704C157.946 22.3981 158.585 22.5619 159.257 22.5619Z" fill="white"/>
<path d="M145.638 24.9951C144.999 24.9951 144.417 24.8968 143.893 24.7001C143.369 24.5035 142.91 24.2496 142.517 23.9383C142.14 23.6106 141.837 23.2747 141.607 22.9306H141.46V24.6018H138.953V7.00513H141.607V12.0187L141.46 13.7636H141.607C141.837 13.4032 142.14 13.0673 142.517 12.756C142.91 12.4283 143.369 12.1662 143.893 11.9696C144.417 11.773 144.999 11.6746 145.638 11.6746C146.785 11.6746 147.809 11.9614 148.71 12.5348C149.611 13.1083 150.324 13.8947 150.848 14.8942C151.389 15.8936 151.659 17.0405 151.659 18.3349C151.659 19.6292 151.389 20.7761 150.848 21.7756C150.324 22.775 149.611 23.5614 148.71 24.1349C147.809 24.7083 146.785 24.9951 145.638 24.9951ZM145.245 22.562C145.9 22.562 146.514 22.39 147.088 22.0459C147.678 21.7018 148.145 21.2103 148.489 20.5713C148.849 19.9323 149.029 19.1868 149.029 18.3349C149.029 17.4665 148.849 16.721 148.489 16.0984C148.145 15.4594 147.678 14.9679 147.088 14.6238C146.514 14.2797 145.9 14.1077 145.245 14.1077C144.589 14.1077 143.975 14.2797 143.401 14.6238C142.828 14.9679 142.361 15.4594 142.001 16.0984C141.64 16.721 141.46 17.4665 141.46 18.3349C141.46 19.2032 141.64 19.9569 142.001 20.5959C142.361 21.2185 142.828 21.7018 143.401 22.0459C143.975 22.39 144.589 22.562 145.245 22.562Z" fill="white"/>
<path d="M131.28 24.995C130.052 24.995 128.954 24.7083 127.987 24.1348C127.021 23.5614 126.259 22.7749 125.702 21.7755C125.161 20.776 124.891 19.6373 124.891 18.3593C124.891 17.1633 125.153 16.0574 125.677 15.0415C126.201 14.0257 126.93 13.2147 127.864 12.6085C128.815 11.9859 129.904 11.6746 131.133 11.6746C132.427 11.6746 133.525 11.9531 134.426 12.5102C135.344 13.0672 136.04 13.8291 136.515 14.7958C136.99 15.7624 137.228 16.852 137.228 18.0644C137.228 18.2447 137.22 18.4085 137.203 18.556C137.203 18.7034 137.195 18.8181 137.179 18.9H127.496C127.561 19.5882 127.733 20.1862 128.012 20.6941C128.372 21.3331 128.847 21.8164 129.437 22.1441C130.027 22.4718 130.666 22.6356 131.354 22.6356C132.19 22.6356 132.886 22.4472 133.443 22.0704C134.017 21.6772 134.467 21.1938 134.795 20.6204L136.982 21.6772C136.442 22.6602 135.704 23.463 134.77 24.0856C133.836 24.6919 132.673 24.995 131.28 24.995ZM127.643 16.9093H134.598C134.582 16.598 134.5 16.2703 134.353 15.9263C134.205 15.5658 133.992 15.2381 133.714 14.9432C133.435 14.6483 133.083 14.4107 132.657 14.2305C132.231 14.0339 131.731 13.9356 131.158 13.9356C130.437 13.9356 129.798 14.124 129.241 14.5008C128.684 14.8613 128.249 15.3692 127.938 16.0246C127.807 16.3031 127.709 16.598 127.643 16.9093Z" fill="white"/>
<path d="M116.312 12.0678H118.5V8.52881H121.154V12.0678H124.226V14.378H121.154V20.3992C121.154 21.0218 121.277 21.497 121.523 21.8246C121.785 22.1523 122.219 22.3162 122.825 22.3162C123.12 22.3162 123.382 22.2752 123.612 22.1933C123.841 22.095 124.07 21.9803 124.3 21.8492V24.4297C124.021 24.5444 123.726 24.6346 123.415 24.7001C123.104 24.7656 122.735 24.7984 122.309 24.7984C121.146 24.7984 120.22 24.4625 119.532 23.7908C118.844 23.1026 118.5 22.1605 118.5 20.9645V14.378H116.312V12.0678Z" fill="white"/>
<path d="M109.288 24.995C107.994 24.995 106.855 24.7001 105.872 24.1102C104.889 23.5204 104.119 22.7258 103.562 21.7263C103.005 20.7105 102.727 19.58 102.727 18.3348C102.727 17.0896 103.005 15.9672 103.562 14.9678C104.119 13.952 104.889 13.1491 105.872 12.5593C106.855 11.9695 107.994 11.6746 109.288 11.6746C110.566 11.6746 111.697 11.9777 112.68 12.5839C113.663 13.1737 114.433 13.9684 114.99 14.9678C115.547 15.9672 115.826 17.0896 115.826 18.3348C115.826 19.58 115.547 20.7105 114.99 21.7263C114.433 22.7258 113.663 23.5204 112.68 24.1102C111.697 24.7001 110.566 24.995 109.288 24.995ZM109.288 22.5619C109.977 22.5619 110.616 22.3981 111.205 22.0704C111.795 21.7263 112.27 21.243 112.631 20.6204C113.008 19.9814 113.196 19.2195 113.196 18.3348C113.196 17.45 113.008 16.6963 112.631 16.0737C112.27 15.4348 111.795 14.9514 111.205 14.6237C110.616 14.2797 109.977 14.1076 109.288 14.1076C108.6 14.1076 107.953 14.2797 107.347 14.6237C106.757 14.9514 106.274 15.4348 105.897 16.0737C105.536 16.6963 105.356 17.45 105.356 18.3348C105.356 19.2195 105.536 19.9814 105.897 20.6204C106.274 21.243 106.765 21.7263 107.372 22.0704C107.978 22.3981 108.617 22.5619 109.288 22.5619Z" fill="white"/>
<path d="M87 24.6018V7.00513H90.1949L98.1577 19.9323H98.3051L98.1577 16.5408V7.00513H100.837V24.6018H98.0348L89.6788 11.0111H89.5314L89.6788 14.4026V24.6018H87Z" fill="white"/>
<defs>
<linearGradient id="paint0_linear_5937_40503" x1="79" y1="27" x2="36.8501" y2="28.086" gradientUnits="userSpaceOnUse">
<stop stop-color="#3CFF52"/>
<stop offset="1" stop-color="#7182FF"/>
</linearGradient>
<clipPath id="clip0_5937_40503">
<rect width="79" height="32" fill="white"/>
</clipPath>
</defs>
</svg>
