<svg xmlns="http://www.w3.org/2000/svg" width="21" height="21" fill="none" viewBox="0 0 21 21" class="logo-solo-kNQYIN"><rect width="21" height="21" fill="#D9D9D9" rx="4.667"></rect><rect width="21" height="21" fill="#A2FF00" rx="4.667"></rect><rect width="21" height="21" fill="#fff" rx="4.667"></rect><g clip-path="url(#logo-solo_svg__a)"><mask id="logo-solo_svg__d" width="15" height="15" x="3" y="3" maskUnits="userSpaceOnUse" style="mask-type:alpha"><path fill="url(#logo-solo_svg__b)" d="m15.713 8.791 1.834.668-.667 1.835-1.835-.668zm-.075-.16-1.893-.69-.06-.02-.02.058-2.821 7.75-1.894-.689-.059-.021-.021.059-.69 1.893-.348-.127-.06-.021-.01.03-3.27-1.19.012-.03-.06-.022-.05-.018.689-1.894.021-.059-.058-.021-1.894-.689.668-1.835 1.893.69.06.021.02-.059.69-1.893.05.018.06.022V9.89l3.27 1.19-.001.004.059.021.408.149.058.021.022-.059 2.82-7.75 1.835.668-.689 1.893-.021.059.059.021 1.893.69z"></path><path fill="url(#logo-solo_svg__c)" d="m15.713 8.791 1.834.668-.667 1.835-1.835-.668zm-.075-.16-1.893-.69-.06-.02-.02.058-2.821 7.75-1.894-.689-.059-.021-.021.059-.69 1.893-.348-.127-.06-.021-.01.03-3.27-1.19.012-.03-.06-.022-.05-.018.689-1.894.021-.059-.058-.021-1.894-.689.668-1.835 1.893.69.06.021.02-.059.69-1.893.05.018.06.022V9.89l3.27 1.19-.001.004.059.021.408.149.058.021.022-.059 2.82-7.75 1.835.668-.689 1.893-.021.059.059.021 1.893.69z"></path><path stroke="#fff" stroke-width="0.125" d="m15.713 8.791 1.834.668-.667 1.835-1.835-.668zm-.075-.16-1.893-.69-.06-.02-.02.058-2.821 7.75-1.894-.689-.059-.021-.021.059-.69 1.893-.348-.127-.06-.021-.01.03-3.27-1.19.012-.03-.06-.022-.05-.018.689-1.894.021-.059-.058-.021-1.894-.689.668-1.835 1.893.69.06.021.02-.059.69-1.893.05.018.06.022V9.89l3.27 1.19-.001.004.059.021.408.149.058.021.022-.059 2.82-7.75 1.835.668-.689 1.893-.021.059.059.021 1.893.69z"></path></mask><g filter="url(#logo-solo_svg__e)" mask="url(#logo-solo_svg__d)" opacity="0.8"><circle cx="8.149" cy="13.634" r="4.075" fill="#fff"></circle></g></g><path fill="#000" stroke="#000" d="m14.504 4.395-.54 1.482-.17.47.469.171 1.482.54-.368 1.012-1.483-.54-.47-.17-.17.47-2.672 7.339-1.482-.54-.47-.17-.171.47-.54 1.481-.408-.148-.01.03-2.448-.89.011-.03-.11-.04.54-1.483.171-.47-.47-.17-1.482-.54.368-1.013 1.483.54.47.17.17-.47.54-1.482.11.04.001-.004 2.448.891-.002.004.47.171.408.149.47.17.17-.47 2.672-7.339zm1.47 4.957 1.013.369-.369 1.012-1.012-.368z"></path><defs><radialGradient id="logo-solo_svg__b" cx="0" cy="0" r="1" gradientTransform="matrix(-9.42663 9.33495 -6.1434 -6.20375 13.083 8.648)" gradientUnits="userSpaceOnUse"><stop offset="0.585" stop-color="#F8F6F2"></stop><stop offset="1" stop-color="#F8F6F2" stop-opacity="0"></stop></radialGradient><radialGradient id="logo-solo_svg__c" cx="0" cy="0" r="1" gradientTransform="matrix(-8.80876 8.73284 -5.74761 -5.79758 12.187 9.383)" gradientUnits="userSpaceOnUse"><stop stop-color="#FFE8A4"></stop><stop offset="1" stop-color="#F8F6F2" stop-opacity="0.01"></stop></radialGradient><clipPath id="logo-solo_svg__a"><path fill="#fff" d="M3.308 3.307h14.386v14.386H3.308z"></path></clipPath><filter id="logo-solo_svg__e" width="14.888" height="14.888" x="0.705" y="6.19" color-interpolation-filters="sRGB" filterUnits="userSpaceOnUse"><feFlood flood-opacity="0" result="BackgroundImageFix"></feFlood><feBlend in="SourceGraphic" in2="BackgroundImageFix" result="shape"></feBlend><feGaussianBlur result="effect1_foregroundBlur_131_2502" stdDeviation="1.685"></feGaussianBlur></filter></defs></svg>