<svg xmlns="http://www.w3.org/2000/svg" height="1em" class="text-[28px]" viewBox="0 0 118 28"><mask id="logo-pixverse_svg__e" width="25" height="25" x="1" y="2" maskUnits="userSpaceOnUse" style="mask-type: alpha;"><path fill="url(#logo-pixverse_svg__a)" d="M24.52 12.775a.441.441 0 0 1 .73.334v10.898c0 .371-.43.577-.72.344l-6.93-5.604z"></path><path fill="url(#logo-pixverse_svg__b)" fill-rule="evenodd" d="M2.36 11.686a.883.883 0 0 0-.883.883v13.007c0 .488.395.883.883.883h4.894a.883.883 0 0 0 .883-.883v-1.324l11.075 1.431a.883.883 0 0 0 .997-.875V12.569a.883.883 0 0 0-.883-.883zM8.563 16.1a.442.442 0 0 0-.442.441v2.89c0 .244.198.441.442.441h4.51a.442.442 0 0 0 .442-.441v-2.89a.442.442 0 0 0-.442-.441z" clip-rule="evenodd"></path><path fill="url(#logo-pixverse_svg__c)" d="M10.082 7.173a3.684 3.684 0 1 1-7.368 0 3.684 3.684 0 0 1 7.368 0"></path><path fill="url(#logo-pixverse_svg__d)" d="M18.922 6.51a4.421 4.421 0 1 1-8.842 0 4.421 4.421 0 0 1 8.842 0"></path></mask><g mask="url(#logo-pixverse_svg__e)"><path fill="url(#logo-pixverse_svg__f)" d="M24.52 12.775a.441.441 0 0 1 .73.334v10.898c0 .371-.43.577-.72.344l-6.93-5.604z"></path><path fill="url(#logo-pixverse_svg__g)" fill-rule="evenodd" d="M2.36 11.686a.883.883 0 0 0-.883.883v13.007c0 .488.395.883.883.883h4.894a.883.883 0 0 0 .883-.883v-1.324l11.075 1.431a.883.883 0 0 0 .997-.875V12.569a.883.883 0 0 0-.883-.883zM8.563 16.1a.442.442 0 0 0-.442.441v2.89c0 .244.198.441.442.441h4.51a.442.442 0 0 0 .442-.441v-2.89a.442.442 0 0 0-.442-.441z" clip-rule="evenodd"></path><path fill="url(#logo-pixverse_svg__h)" d="M10.082 7.173a3.684 3.684 0 1 1-7.368 0 3.684 3.684 0 0 1 7.368 0"></path><path fill="url(#logo-pixverse_svg__i)" d="M18.922 6.51a4.421 4.421 0 1 1-8.842 0 4.421 4.421 0 0 1 8.842 0"></path><g filter="url(#logo-pixverse_svg__j)"><ellipse cx="6.047" cy="32.395" fill="#7DD6CD" fill-opacity="0.75" rx="13.188" ry="9.782"></ellipse></g></g><path fill="url(#logo-pixverse_svg__k)" d="M112.474 23.665c-1.176 0-2.206-.218-3.088-.653-.87-.436-1.547-1.03-2.029-1.783-.482-.764-.723-1.623-.723-2.576 0-.976.235-1.84.705-2.594a4.995 4.995 0 0 1 1.959-1.764c.835-.424 1.77-.635 2.806-.635.952 0 1.829.188 2.629.564a4.563 4.563 0 0 1 1.941 1.676c.494.742.741 1.66.741 2.753 0 .141-.006.3-.018.477-.012.164-.023.317-.035.458h-7.429v-1.923h5.311l-1.499.512c0-.377-.071-.694-.212-.953a1.41 1.41 0 0 0-.547-.618 1.52 1.52 0 0 0-.847-.229c-.33 0-.618.076-.865.23a1.41 1.41 0 0 0-.547.617c-.129.259-.194.576-.194.953v.6c0 .411.082.764.247 1.058.165.294.4.518.706.671.306.141.676.212 1.112.212.447 0 .811-.06 1.094-.177.294-.117.6-.294.917-.53l2.082 2.1a4.643 4.643 0 0 1-1.747 1.165c-.682.26-1.505.389-2.47.389"></path><path fill="url(#logo-pixverse_svg__l)" d="M100.946 23.665c-.823 0-1.635-.089-2.435-.265-.8-.177-1.447-.406-1.94-.688l1.093-2.63c.459.271.988.483 1.588.636.612.153 1.206.23 1.782.23.483 0 .806-.042.971-.124.176-.083.265-.195.265-.336 0-.14-.1-.24-.3-.3a3.62 3.62 0 0 0-.794-.159c-.33-.035-.694-.076-1.094-.123a11.115 11.115 0 0 1-1.183-.247 3.814 3.814 0 0 1-1.094-.476 2.39 2.39 0 0 1-.794-.847c-.2-.365-.3-.824-.3-1.377 0-.611.183-1.164.547-1.658.377-.495.93-.889 1.659-1.183.741-.306 1.653-.458 2.735-.458.706 0 1.412.064 2.117.194.706.13 1.312.33 1.818.6l-1.094 2.629a5.072 5.072 0 0 0-1.465-.547 6.034 6.034 0 0 0-1.323-.159c-.506 0-.853.047-1.041.141-.177.094-.265.2-.265.318 0 .14.1.247.3.317.2.07.465.124.794.16.33.035.688.082 1.077.14.4.047.794.13 1.182.247.4.106.764.265 1.094.477.329.212.594.5.794.864.2.353.3.806.3 1.36 0 .576-.183 1.117-.547 1.622-.365.494-.918.895-1.659 1.2-.741.294-1.67.442-2.788.442"></path><path fill="url(#logo-pixverse_svg__m)" d="M89.122 23.488v-9.652h3.793v2.911l-.617-.829c.294-.753.764-1.317 1.411-1.694.647-.376 1.424-.564 2.33-.564v3.529a9.86 9.86 0 0 0-.477-.053 4.473 4.473 0 0 0-.406-.018c-.6 0-1.094.159-1.482.477-.377.305-.565.84-.565 1.605v4.288z"></path><path fill="url(#logo-pixverse_svg__n)" d="M82.923 23.665c-1.177 0-2.206-.218-3.088-.653-.87-.436-1.547-1.03-2.03-1.783-.482-.764-.723-1.623-.723-2.576 0-.976.236-1.84.706-2.594a4.986 4.986 0 0 1 1.959-1.764c.835-.424 1.77-.635 2.805-.635.953 0 1.83.188 2.63.564a4.555 4.555 0 0 1 1.94 1.676c.495.742.742 1.66.742 2.753 0 .141-.006.3-.018.477l-.035.458h-7.43v-1.923h5.312l-1.5.512c0-.377-.07-.694-.212-.953a1.404 1.404 0 0 0-.546-.618 1.52 1.52 0 0 0-.847-.229c-.33 0-.618.076-.865.23a1.405 1.405 0 0 0-.547.617c-.13.259-.194.576-.194.953v.6c0 .411.082.764.247 1.058.165.294.4.518.706.671.305.141.676.212 1.111.212.447 0 .812-.06 1.094-.177.294-.117.6-.294.918-.53l2.082 2.1a4.654 4.654 0 0 1-1.747 1.165c-.682.26-1.506.389-2.47.389"></path><path fill="url(#logo-pixverse_svg__o)" d="M68.695 23.489 63.47 11.137h4.482l4.253 10.428H69.54l4.377-10.428h4.093l-5.223 12.352z"></path><path fill="url(#logo-pixverse_svg__p)" d="m52.705 23.486 4.553-5.964-.106 2.294-4.341-5.982h4.5l2.135 3.194-1.66.123 2.348-3.317h4.182l-4.359 5.788v-2.206l4.447 6.07h-4.57l-2.206-3.405 1.676.229-2.276 3.176z"></path><path fill="url(#logo-pixverse_svg__q)" d="M47.992 23.487v-9.652h3.988v9.652zm1.994-10.428c-.73 0-1.312-.195-1.747-.583a1.86 1.86 0 0 1-.653-1.447c0-.576.218-1.058.653-1.447.435-.388 1.018-.582 1.747-.582.73 0 1.312.182 1.747.547.435.365.653.835.653 1.412 0 .611-.218 1.117-.653 1.517-.435.388-1.018.582-1.747.582"></path><path fill="url(#logo-pixverse_svg__r)" d="M35 23.489V11.137h5.947c1.152 0 2.146.188 2.981.564.848.377 1.5.918 1.96 1.624.458.694.687 1.517.687 2.47 0 .953-.23 1.777-.688 2.47-.459.695-1.111 1.236-1.959 1.624-.835.376-1.829.565-2.981.565H37.31l1.853-1.783v4.818zm4.164-4.359-1.852-1.888h3.37c.576 0 1-.13 1.27-.388.283-.259.424-.612.424-1.059 0-.447-.141-.8-.424-1.059-.27-.258-.694-.388-1.27-.388h-3.37l1.852-1.888z"></path><defs><linearGradient id="logo-pixverse_svg__a" x1="18.2" x2="2.8" y1="5.6" y2="26.6" gradientUnits="userSpaceOnUse"><stop stop-color="#E9632A"></stop><stop offset="0.466" stop-color="#AC5DE1"></stop><stop offset="1" stop-color="#349EEB"></stop></linearGradient><linearGradient id="logo-pixverse_svg__b" x1="18.2" x2="2.8" y1="5.6" y2="26.6" gradientUnits="userSpaceOnUse"><stop stop-color="#E9632A"></stop><stop offset="0.466" stop-color="#AC5DE1"></stop><stop offset="1" stop-color="#349EEB"></stop></linearGradient><linearGradient id="logo-pixverse_svg__c" x1="18.2" x2="2.8" y1="5.6" y2="26.6" gradientUnits="userSpaceOnUse"><stop stop-color="#E9632A"></stop><stop offset="0.466" stop-color="#AC5DE1"></stop><stop offset="1" stop-color="#349EEB"></stop></linearGradient><linearGradient id="logo-pixverse_svg__d" x1="18.2" x2="2.8" y1="5.6" y2="26.6" gradientUnits="userSpaceOnUse"><stop stop-color="#E9632A"></stop><stop offset="0.466" stop-color="#AC5DE1"></stop><stop offset="1" stop-color="#349EEB"></stop></linearGradient><linearGradient id="logo-pixverse_svg__f" x1="18.2" x2="2.8" y1="5.6" y2="26.6" gradientUnits="userSpaceOnUse"><stop stop-color="#E9632A"></stop><stop offset="0.61" stop-color="#B664E8"></stop></linearGradient><linearGradient id="logo-pixverse_svg__g" x1="18.2" x2="2.8" y1="5.6" y2="26.6" gradientUnits="userSpaceOnUse"><stop stop-color="#E9632A"></stop><stop offset="0.61" stop-color="#B664E8"></stop></linearGradient><linearGradient id="logo-pixverse_svg__h" x1="18.2" x2="2.8" y1="5.6" y2="26.6" gradientUnits="userSpaceOnUse"><stop stop-color="#E9632A"></stop><stop offset="0.61" stop-color="#B664E8"></stop></linearGradient><linearGradient id="logo-pixverse_svg__i" x1="18.2" x2="2.8" y1="5.6" y2="26.6" gradientUnits="userSpaceOnUse"><stop stop-color="#E9632A"></stop><stop offset="0.61" stop-color="#B664E8"></stop></linearGradient><linearGradient id="logo-pixverse_svg__k" x1="71" x2="71" y1="11.5" y2="23" gradientUnits="userSpaceOnUse"><stop stop-color="#F3F3F3"></stop><stop offset="1" stop-color="#E2E2E2"></stop></linearGradient><linearGradient id="logo-pixverse_svg__l" x1="71" x2="71" y1="11.5" y2="23" gradientUnits="userSpaceOnUse"><stop stop-color="#F3F3F3"></stop><stop offset="1" stop-color="#E2E2E2"></stop></linearGradient><linearGradient id="logo-pixverse_svg__m" x1="71" x2="71" y1="11.5" y2="23" gradientUnits="userSpaceOnUse"><stop stop-color="#F3F3F3"></stop><stop offset="1" stop-color="#E2E2E2"></stop></linearGradient><linearGradient id="logo-pixverse_svg__n" x1="71" x2="71" y1="11.5" y2="23" gradientUnits="userSpaceOnUse"><stop stop-color="#F3F3F3"></stop><stop offset="1" stop-color="#E2E2E2"></stop></linearGradient><linearGradient id="logo-pixverse_svg__o" x1="71" x2="71" y1="11.5" y2="23" gradientUnits="userSpaceOnUse"><stop stop-color="#F3F3F3"></stop><stop offset="1" stop-color="#E2E2E2"></stop></linearGradient><linearGradient id="logo-pixverse_svg__p" x1="71" x2="71" y1="11.5" y2="23" gradientUnits="userSpaceOnUse"><stop stop-color="#F3F3F3"></stop><stop offset="1" stop-color="#E2E2E2"></stop></linearGradient><linearGradient id="logo-pixverse_svg__q" x1="71" x2="71" y1="11.5" y2="23" gradientUnits="userSpaceOnUse"><stop stop-color="#F3F3F3"></stop><stop offset="1" stop-color="#E2E2E2"></stop></linearGradient><linearGradient id="logo-pixverse_svg__r" x1="71" x2="71" y1="11.5" y2="23" gradientUnits="userSpaceOnUse"><stop stop-color="#F3F3F3"></stop><stop offset="1" stop-color="#E2E2E2"></stop></linearGradient><filter id="logo-pixverse_svg__j" width="47.559" height="40.748" x="-17.732" y="12.02" color-interpolation-filters="sRGB" filterUnits="userSpaceOnUse"><feFlood flood-opacity="0" result="BackgroundImageFix"></feFlood><feBlend in="SourceGraphic" in2="BackgroundImageFix" result="shape"></feBlend><feGaussianBlur result="effect1_foregroundBlur_3183_6848" stdDeviation="5.296"></feGaussianBlur></filter></defs></svg>