<svg width="173" height="44" viewBox="0 0 173 44" fill="none" xmlns="http://www.w3.org/2000/svg"><path d="M47.8423 25.722C47.6517 25.8833 47.4023 26.0153 47.0943 26.118C46.801 26.206 46.4563 26.25 46.0603 26.25C45.5323 26.25 45.0923 26.184 44.7403 26.052C44.403 25.92 44.183 25.6927 44.0803 25.37C43.6697 24.0793 43.3323 23.038 43.0683 22.246C42.8043 21.4393 42.599 20.7353 42.4523 20.134H42.3423C42.2983 20.9993 42.2617 21.7913 42.2323 22.51C42.2177 23.214 42.203 23.9033 42.1883 24.578C42.1883 25.2527 42.1737 25.9347 42.1443 26.624C42.1297 27.3133 42.1003 28.076 42.0563 28.912C41.8657 28.9853 41.6163 29.044 41.3083 29.088C41.0003 29.1467 40.6923 29.176 40.3843 29.176C39.739 29.176 39.233 29.0733 38.8663 28.868C38.5143 28.6627 38.3383 28.2887 38.3383 27.746L38.9763 16.526C39.0937 16.3353 39.3503 16.13 39.7463 15.91C40.1423 15.69 40.6997 15.58 41.4183 15.58C42.1957 15.58 42.8043 15.7047 43.2443 15.954C43.6843 16.1887 44.007 16.5773 44.2123 17.12C44.3443 17.472 44.4837 17.8753 44.6303 18.33C44.7917 18.7847 44.9457 19.254 45.0923 19.738C45.2537 20.222 45.4077 20.706 45.5543 21.19C45.701 21.6593 45.833 22.0847 45.9503 22.466H46.0603C46.4123 21.234 46.7643 20.046 47.1163 18.902C47.4683 17.7433 47.791 16.7753 48.0843 15.998C48.3043 15.8807 48.583 15.7853 48.9203 15.712C49.2723 15.624 49.661 15.58 50.0863 15.58C50.805 15.58 51.3917 15.69 51.8463 15.91C52.301 16.1153 52.565 16.416 52.6383 16.812C52.697 17.1053 52.7557 17.56 52.8143 18.176C52.8877 18.7773 52.961 19.4593 53.0343 20.222C53.1077 20.9847 53.181 21.7913 53.2543 22.642C53.3277 23.4927 53.3937 24.314 53.4523 25.106C53.5257 25.8833 53.5843 26.602 53.6283 27.262C53.6723 27.9073 53.7017 28.406 53.7163 28.758C53.467 28.9047 53.203 29.0073 52.9243 29.066C52.6603 29.1393 52.3157 29.176 51.8903 29.176C51.333 29.176 50.8637 29.0807 50.4823 28.89C50.101 28.6993 49.8957 28.3253 49.8663 27.768C49.7783 26.1693 49.7197 24.732 49.6903 23.456C49.6757 22.18 49.6463 21.1093 49.6023 20.244H49.4923C49.3457 20.816 49.133 21.5347 48.8543 22.4C48.5757 23.2653 48.2383 24.3727 47.8423 25.722ZM55.3882 22.312C55.3882 21.168 55.5642 20.156 55.9162 19.276C56.2828 18.396 56.7742 17.6627 57.3902 17.076C58.0208 16.4747 58.7542 16.02 59.5902 15.712C60.4408 15.404 61.3575 15.25 62.3402 15.25C63.3228 15.25 64.2322 15.404 65.0682 15.712C65.9188 16.02 66.6595 16.4747 67.2902 17.076C67.9208 17.6627 68.4122 18.396 68.7642 19.276C69.1308 20.156 69.3142 21.168 69.3142 22.312C69.3142 23.456 69.1382 24.4753 68.7862 25.37C68.4342 26.25 67.9428 26.9907 67.3122 27.592C66.6962 28.1787 65.9628 28.626 65.1122 28.934C64.2615 29.242 63.3375 29.396 62.3402 29.396C61.3428 29.396 60.4188 29.242 59.5682 28.934C58.7175 28.6113 57.9842 28.1493 57.3682 27.548C56.7522 26.9467 56.2682 26.206 55.9162 25.326C55.5642 24.446 55.3882 23.4413 55.3882 22.312ZM59.3482 22.312C59.3482 23.6467 59.6195 24.644 60.1622 25.304C60.7048 25.964 61.4308 26.294 62.3402 26.294C63.2642 26.294 63.9975 25.964 64.5402 25.304C65.0828 24.644 65.3542 23.6467 65.3542 22.312C65.3542 20.992 65.0828 20.002 64.5402 19.342C64.0122 18.682 63.2862 18.352 62.3622 18.352C61.4528 18.352 60.7195 18.682 60.1622 19.342C59.6195 19.9873 59.3482 20.9773 59.3482 22.312ZM83.5949 28.538C83.3896 28.7433 83.0889 28.8973 82.6929 29C82.3116 29.1173 81.8496 29.176 81.3069 29.176C80.7642 29.176 80.2509 29.0953 79.7669 28.934C79.2829 28.7727 78.8869 28.384 78.5789 27.768L76.4009 23.324C76.1809 22.8693 75.9829 22.444 75.8069 22.048C75.6309 21.6373 75.4402 21.168 75.2349 20.64L75.1029 20.662C75.1616 21.454 75.1909 22.2607 75.1909 23.082C75.2056 23.9033 75.2129 24.71 75.2129 25.502V28.912C75.0516 28.956 74.8022 29 74.4649 29.044C74.1422 29.088 73.8196 29.11 73.4969 29.11C73.1742 29.11 72.8882 29.088 72.6389 29.044C72.3896 29 72.1842 28.912 72.0229 28.78C71.8616 28.648 71.7369 28.472 71.6489 28.252C71.5609 28.0173 71.5169 27.7167 71.5169 27.35V16.35C71.7222 16.0567 72.0376 15.8367 72.4629 15.69C72.8882 15.5433 73.3429 15.47 73.8269 15.47C74.3696 15.47 74.8829 15.558 75.3669 15.734C75.8656 15.8953 76.2616 16.2767 76.5549 16.878L78.7549 21.322C78.9749 21.7767 79.1729 22.2093 79.3489 22.62C79.5249 23.016 79.7156 23.478 79.9209 24.006L80.0309 23.984C79.9722 23.192 79.9356 22.4 79.9209 21.608C79.9062 20.816 79.8989 20.024 79.8989 19.232V15.668C80.0602 15.624 80.3022 15.58 80.6249 15.536C80.9622 15.492 81.2922 15.47 81.6149 15.47C82.2602 15.47 82.7516 15.5873 83.0889 15.822C83.4262 16.042 83.5949 16.5113 83.5949 17.23V28.538ZM90.2326 23.698C89.5872 23.478 89.0006 23.258 88.4726 23.038C87.9446 22.8033 87.4899 22.5247 87.1086 22.202C86.7272 21.8793 86.4266 21.498 86.2066 21.058C86.0012 20.6033 85.8986 20.0533 85.8986 19.408C85.8986 18.1613 86.3752 17.164 87.3286 16.416C88.2966 15.668 89.6459 15.294 91.3766 15.294C92.0072 15.294 92.5939 15.338 93.1366 15.426C93.6792 15.514 94.1412 15.6533 94.5226 15.844C94.9186 16.02 95.2266 16.2547 95.4466 16.548C95.6666 16.8267 95.7766 17.1567 95.7766 17.538C95.7766 17.9193 95.6886 18.2493 95.5126 18.528C95.3366 18.792 95.1239 19.0193 94.8746 19.21C94.5519 19.0047 94.1192 18.8287 93.5766 18.682C93.0339 18.5207 92.4399 18.44 91.7946 18.44C91.1346 18.44 90.6506 18.5353 90.3426 18.726C90.0346 18.902 89.8806 19.1293 89.8806 19.408C89.8806 19.628 89.9759 19.8113 90.1666 19.958C90.3572 20.09 90.6432 20.2147 91.0246 20.332L92.1906 20.706C93.5692 21.146 94.6252 21.7107 95.3586 22.4C96.1066 23.0747 96.4806 23.9987 96.4806 25.172C96.4806 26.4187 95.9892 27.4307 95.0066 28.208C94.0239 28.9707 92.5792 29.352 90.6726 29.352C89.9979 29.352 89.3672 29.2933 88.7806 29.176C88.2086 29.0733 87.7026 28.9193 87.2626 28.714C86.8372 28.494 86.4999 28.23 86.2506 27.922C86.0159 27.5993 85.8986 27.2327 85.8986 26.822C85.8986 26.3967 86.0232 26.0373 86.2726 25.744C86.5219 25.436 86.7932 25.2013 87.0866 25.04C87.4972 25.3627 87.9959 25.6413 88.5826 25.876C89.1839 26.1107 89.8366 26.228 90.5406 26.228C91.2592 26.228 91.7652 26.118 92.0586 25.898C92.3519 25.678 92.4986 25.4213 92.4986 25.128C92.4986 24.8347 92.3812 24.6147 92.1466 24.468C91.9119 24.3067 91.5819 24.1527 91.1566 24.006L90.2326 23.698ZM97.6704 18.748C97.5678 18.5867 97.4724 18.3667 97.3844 18.088C97.2964 17.8093 97.2524 17.516 97.2524 17.208C97.2524 16.636 97.3771 16.2253 97.6264 15.976C97.8904 15.7267 98.2278 15.602 98.6384 15.602H108.23C108.333 15.7633 108.428 15.9833 108.516 16.262C108.604 16.5407 108.648 16.834 108.648 17.142C108.648 17.714 108.516 18.1247 108.252 18.374C108.003 18.6233 107.673 18.748 107.262 18.748H104.82V28.912C104.659 28.956 104.402 29 104.05 29.044C103.713 29.088 103.376 29.11 103.038 29.11C102.701 29.11 102.4 29.0807 102.136 29.022C101.887 28.978 101.674 28.89 101.498 28.758C101.322 28.626 101.19 28.4427 101.102 28.208C101.014 27.9733 100.97 27.6653 100.97 27.284V18.748H97.6704ZM110.511 17.714C110.511 17.0833 110.694 16.5847 111.061 16.218C111.428 15.8513 111.926 15.668 112.557 15.668H119.817C119.92 15.8293 120.008 16.042 120.081 16.306C120.169 16.57 120.213 16.8487 120.213 17.142C120.213 17.6993 120.088 18.0953 119.839 18.33C119.604 18.5647 119.289 18.682 118.893 18.682H114.251V20.728H119.201C119.304 20.8893 119.392 21.102 119.465 21.366C119.553 21.6153 119.597 21.8867 119.597 22.18C119.597 22.7373 119.48 23.1333 119.245 23.368C119.01 23.6027 118.695 23.72 118.299 23.72H114.251V26.03H119.905C120.008 26.1913 120.096 26.404 120.169 26.668C120.257 26.932 120.301 27.2107 120.301 27.504C120.301 28.0613 120.176 28.4647 119.927 28.714C119.692 28.9487 119.377 29.066 118.981 29.066H112.557C111.926 29.066 111.428 28.8827 111.061 28.516C110.694 28.1493 110.511 27.6507 110.511 27.02V17.714ZM126.392 24.688V28.912C126.23 28.956 125.974 29 125.622 29.044C125.284 29.088 124.947 29.11 124.61 29.11C124.272 29.11 123.972 29.0807 123.708 29.022C123.458 28.978 123.246 28.89 123.07 28.758C122.908 28.626 122.784 28.4427 122.696 28.208C122.608 27.9733 122.564 27.6653 122.564 27.284V16.922C122.564 16.614 122.644 16.3793 122.806 16.218C122.982 16.042 123.216 15.9027 123.51 15.8C124.008 15.624 124.588 15.4993 125.248 15.426C125.908 15.338 126.612 15.294 127.36 15.294C129.384 15.294 130.909 15.7193 131.936 16.57C132.962 17.4207 133.476 18.572 133.476 20.024C133.476 20.9333 133.241 21.7107 132.772 22.356C132.302 23.0013 131.745 23.5 131.1 23.852C131.628 24.5707 132.148 25.2453 132.662 25.876C133.175 26.5067 133.578 27.0787 133.872 27.592C133.725 28.1053 133.454 28.5013 133.058 28.78C132.676 29.044 132.244 29.176 131.76 29.176C131.437 29.176 131.158 29.1393 130.924 29.066C130.689 28.9927 130.484 28.89 130.308 28.758C130.132 28.626 129.97 28.4647 129.824 28.274C129.677 28.0833 129.538 27.878 129.406 27.658L127.558 24.688H126.392ZM127.778 21.762C128.335 21.762 128.775 21.6227 129.098 21.344C129.42 21.0507 129.582 20.6253 129.582 20.068C129.582 19.5107 129.398 19.0927 129.032 18.814C128.68 18.5207 128.115 18.374 127.338 18.374C127.118 18.374 126.942 18.3813 126.81 18.396C126.678 18.4107 126.531 18.4327 126.37 18.462V21.762H127.778ZM143.212 16.064C143.462 15.9173 143.836 15.778 144.334 15.646C144.848 15.514 145.361 15.448 145.874 15.448C146.608 15.448 147.253 15.558 147.81 15.778C148.382 15.9833 148.749 16.3133 148.91 16.768C149.174 17.5307 149.46 18.418 149.768 19.43C150.076 20.442 150.384 21.4907 150.692 22.576C151 23.6467 151.301 24.71 151.594 25.766C151.888 26.8073 152.144 27.7313 152.364 28.538C152.188 28.7433 151.924 28.9047 151.572 29.022C151.22 29.154 150.802 29.22 150.318 29.22C149.966 29.22 149.666 29.1907 149.416 29.132C149.182 29.0733 148.984 28.9853 148.822 28.868C148.676 28.7507 148.551 28.5967 148.448 28.406C148.36 28.2153 148.28 27.9953 148.206 27.746L147.81 26.228H143.828C143.711 26.668 143.594 27.1227 143.476 27.592C143.359 28.0613 143.242 28.516 143.124 28.956C142.919 29.0293 142.699 29.088 142.464 29.132C142.244 29.1907 141.973 29.22 141.65 29.22C140.902 29.22 140.345 29.0953 139.978 28.846C139.626 28.582 139.45 28.2227 139.45 27.768C139.45 27.5627 139.48 27.3573 139.538 27.152C139.597 26.9467 139.663 26.7047 139.736 26.426C139.839 26.03 139.978 25.5387 140.154 24.952C140.345 24.3653 140.55 23.7347 140.77 23.06C140.99 22.3707 141.225 21.6667 141.474 20.948C141.724 20.2293 141.958 19.5547 142.178 18.924C142.398 18.2787 142.596 17.7067 142.772 17.208C142.963 16.7093 143.11 16.328 143.212 16.064ZM145.852 18.902C145.647 19.518 145.412 20.2073 145.148 20.97C144.899 21.718 144.672 22.4807 144.466 23.258H147.194C146.989 22.466 146.776 21.696 146.556 20.948C146.351 20.1853 146.16 19.5033 145.984 18.902H145.852ZM159.161 21.85C159.777 21.85 160.247 21.7107 160.569 21.432C160.907 21.1387 161.075 20.6987 161.075 20.112C161.075 19.5547 160.899 19.1293 160.547 18.836C160.21 18.528 159.711 18.374 159.051 18.374C158.817 18.374 158.619 18.3813 158.457 18.396C158.311 18.396 158.157 18.4107 157.995 18.44V21.85H159.161ZM158.017 28.912C157.856 28.956 157.599 29 157.247 29.044C156.91 29.088 156.573 29.11 156.235 29.11C155.898 29.11 155.597 29.0807 155.333 29.022C155.084 28.978 154.871 28.89 154.695 28.758C154.519 28.626 154.387 28.4427 154.299 28.208C154.211 27.9733 154.167 27.6653 154.167 27.284V16.922C154.167 16.614 154.248 16.3793 154.409 16.218C154.585 16.042 154.82 15.9027 155.113 15.8C155.612 15.624 156.177 15.4993 156.807 15.426C157.453 15.338 158.098 15.294 158.743 15.294C160.767 15.294 162.315 15.7267 163.385 16.592C164.456 17.4573 164.991 18.6307 164.991 20.112C164.991 20.8307 164.874 21.4833 164.639 22.07C164.419 22.642 164.082 23.1407 163.627 23.566C163.187 23.9767 162.623 24.2993 161.933 24.534C161.259 24.754 160.474 24.864 159.579 24.864H158.017V28.912ZM170.801 28.912C170.639 28.956 170.383 29 170.031 29.044C169.693 29.088 169.356 29.11 169.019 29.11C168.681 29.11 168.381 29.0807 168.117 29.022C167.867 28.978 167.655 28.89 167.479 28.758C167.303 28.626 167.171 28.4427 167.083 28.208C166.995 27.9733 166.951 27.6653 166.951 27.284V15.668C167.112 15.6387 167.369 15.602 167.721 15.558C168.073 15.4993 168.41 15.47 168.733 15.47C169.07 15.47 169.363 15.4993 169.613 15.558C169.877 15.602 170.097 15.69 170.273 15.822C170.449 15.954 170.581 16.1373 170.669 16.372C170.757 16.6067 170.801 16.9147 170.801 17.296V28.912Z" fill="#141414"></path><g clip-path="url(#clip0_56_300)"><path d="M11.6681 19.9002C10.5101 20.2109 9.82284 21.403 10.1331 22.5627C10.4434 23.7223 11.6338 24.4106 12.7918 24.0998C13.9498 23.7891 14.6371 22.597 14.3268 21.4374C14.0165 20.2777 12.8262 19.5894 11.6681 19.9002ZM12.859 21.8312C12.5121 21.9243 12.1543 21.7173 12.0614 21.37C11.9685 21.0228 12.1749 20.6644 12.5219 20.5713C12.8689 20.4782 13.2266 20.6852 13.3195 21.0325C13.4124 21.3797 13.206 21.7381 12.859 21.8312Z" fill="#9522DC"></path><path d="M16.9439 15.1278L17.5555 14.0668C17.833 14.1184 18.1243 14.1167 18.4151 14.0387C19.4573 13.759 20.0759 12.6862 19.7966 11.6424C19.5173 10.5987 18.446 9.97928 17.4038 10.259C16.3615 10.5386 15.743 11.6114 16.0223 12.6552C16.1002 12.9464 16.2443 13.1998 16.4278 13.4147L15.6625 14.7419C13.9922 14.3562 12.155 14.3681 10.3197 14.8606C8.48437 15.3531 6.88731 16.2627 5.63341 17.4331L4.30801 16.6668C4.35961 16.3889 4.3579 16.0973 4.27998 15.806C4.0007 14.7623 2.92939 14.1429 1.88716 14.4226C0.84492 14.7022 0.226386 15.775 0.505662 16.8188C0.784939 17.8626 1.85621 18.482 2.89848 18.2023C3.18928 18.1243 3.4423 17.9799 3.65689 17.7962L4.71636 18.4088C2.97403 20.5288 2.22262 23.2358 2.9216 25.8481C4.16078 30.4794 9.49599 33.0864 14.8144 31.6593C20.1329 30.2322 23.4517 25.303 22.2125 20.6717C21.5135 18.0594 19.5112 16.0913 16.9439 15.1278ZM16.6565 28.4643L12.0434 29.7021C11.6959 29.7954 11.3389 29.5889 11.2458 29.2409C11.1527 28.8929 11.3588 28.5354 11.7063 28.4422L16.3193 27.2043C16.6668 27.1111 17.0238 27.3175 17.117 27.6655C17.21 28.0135 17.0039 28.371 16.6565 28.4643ZM13.466 26.6197C10.9224 27.3022 8.29837 25.7848 7.6169 23.2379C6.93543 20.6909 8.45024 18.0629 10.9939 17.3804C13.5375 16.6978 16.1615 18.2153 16.843 20.7622C17.5245 23.3091 16.0097 25.9371 13.466 26.6197Z" fill="#9522DC"></path></g><defs><clipPath id="clip0_56_300"><rect width="19.9733" height="19.9981" fill="white" transform="matrix(0.965833 -0.259164 0.258474 0.966018 0 14.929)"></rect></clipPath></defs></svg>