<svg width="108" height="30" viewBox="0 0 108 30" fill="none" xmlns="http://www.w3.org/2000/svg">
<path d="M25.914 20.4142C25.641 20.3201 25.4112 20.1305 25.267 19.8805C25.1227 19.6303 25.0737 19.3365 25.129 19.0531C25.1747 18.8194 25.2958 18.6072 25.4735 18.4488C25.9425 17.9876 26.2646 17.3981 26.3998 16.7545C26.5754 15.8275 26.377 14.8687 25.8478 14.0877C25.3187 13.3067 24.5018 12.7669 23.5758 12.5863H23.5307C23.1579 12.4847 22.7795 12.383 22.4011 12.3039C19.2058 11.5873 15.8727 11.7905 12.7882 12.89C9.70351 13.9895 6.99346 15.9403 4.97185 18.5165C4.45411 19.1055 4.06468 19.7959 3.8284 20.5436C3.59211 21.2914 3.51413 22.0802 3.59943 22.8597C3.59943 22.8597 3.59943 22.9049 3.59943 22.9275C3.59943 22.9501 3.59943 23.063 3.59943 23.1308C3.60262 23.1684 3.60262 23.2062 3.59943 23.2438C3.59943 23.2777 3.59943 23.3172 3.59943 23.351C3.96654 25.1414 4.82501 27.9541 10.1566 29.2361C15.4882 30.5182 23.5419 29.7049 26.8855 24.396C27.0598 24.0773 27.2162 23.7492 27.3542 23.4132C27.3902 23.3134 27.4204 23.2116 27.4446 23.1083C27.556 22.5502 27.4626 21.9707 27.1815 21.4759C26.9004 20.9811 26.4504 20.6042 25.914 20.4142ZM20.8931 23.4019C20.4666 23.4019 20.0496 23.2751 19.6953 23.0377C19.341 22.8002 19.0652 22.4628 18.903 22.0682C18.7408 21.6737 18.6995 21.24 18.7844 20.8219C18.8693 20.4039 19.0765 20.0205 19.3797 19.7205C19.6829 19.4205 20.0685 19.2173 20.4873 19.1369C20.9062 19.0564 21.3395 19.1023 21.7323 19.2687C22.1251 19.435 22.4596 19.7143 22.6933 20.0711C22.9271 20.4279 23.0494 20.8462 23.0449 21.2726C23.0375 21.839 22.8077 22.3797 22.4051 22.778C22.0025 23.1764 21.4595 23.4005 20.8931 23.4019Z" fill="url(#paint0_linear_335_14863)"/>
<path d="M26.1001 7.76317L22.8526 8.94351L19.944 0.940544C19.8448 0.671191 19.6428 0.452163 19.3824 0.331471C19.1219 0.210779 18.8243 0.198271 18.5546 0.296689L1.6563 6.44151C1.38551 6.54083 1.1651 6.74335 1.04336 7.00486C0.921622 7.26637 0.908477 7.56535 1.0068 7.83655L3.91544 15.8339L0.673582 17.0142C0.546856 17.0602 0.430475 17.1308 0.331142 17.222C0.231808 17.3131 0.151482 17.423 0.0947889 17.5453C0.0380959 17.6676 0.0061554 17.8 0.000805365 17.9346C-0.00454467 18.0693 0.0168016 18.2038 0.0636159 18.3302L1.01245 20.9395C1.10546 21.1956 1.29629 21.4042 1.54303 21.5196C1.78977 21.6351 2.07225 21.6478 2.3284 21.5551L27.7436 12.304C27.9997 12.211 28.2083 12.0201 28.3238 11.7734C28.4392 11.5266 28.452 11.2442 28.3592 10.988L27.4104 8.37305C27.3162 8.11938 27.1259 7.91317 26.8806 7.79889C26.6353 7.68471 26.3549 7.67188 26.1001 7.76317Z" fill="url(#paint1_linear_335_14863)"/>
<path d="M3.68377 21.0638L25.0608 13.2754L3.68942 23.3511C3.53026 22.5972 3.52834 21.8185 3.68377 21.0638Z" fill="#1712EB"/>
<path d="M43.4784 7.71791L45.3987 12.5072H48.7365L46.2233 6.23813C46.1609 6.07151 46.0489 5.92806 45.9025 5.82708C45.7561 5.72612 45.5822 5.67246 45.4043 5.67335H38.2824C38.1047 5.67326 37.9312 5.72723 37.785 5.8281C37.6387 5.92899 37.5265 6.07197 37.4635 6.23813L34.9502 12.5072H38.288L40.2139 7.71791H43.4784Z" fill="black"/>
<path d="M52.5094 8.80176H49.4934V20.8259H52.5094V8.80176Z" fill="black"/>
<path d="M50.2954 22.6456V23.5944C50.2954 23.8266 50.3876 24.0492 50.5518 24.2134C50.716 24.3775 50.9387 24.4698 51.1709 24.4698H56.0901C56.3223 24.4698 56.5449 24.3775 56.7091 24.2134C56.8733 24.0492 56.9656 23.8266 56.9656 23.5944V5.63428H53.6164V22.6456H50.2954Z" fill="black"/>
<path d="M36.187 23.5938C36.1862 23.7089 36.2084 23.8231 36.2521 23.9296C36.2959 24.0362 36.3603 24.133 36.4417 24.2145C36.5231 24.2959 36.62 24.3603 36.7265 24.4041C36.8331 24.4478 36.9473 24.4699 37.0624 24.4691H46.8953C47.1274 24.4691 47.3501 24.3769 47.5143 24.2128C47.6785 24.0486 47.7707 23.8259 47.7707 23.5938V22.6449H39.5361V15.1446H44.1335V18.6688H41.7388V19.6234C41.7388 19.8555 41.831 20.0782 41.9952 20.2424C42.1594 20.4065 42.3821 20.4987 42.6142 20.4987H46.6073C46.8394 20.4987 47.0621 20.4065 47.2263 20.2424C47.3904 20.0782 47.4826 19.8555 47.4826 19.6234V13.3203H37.9717L36.187 13.3655V23.5938Z" fill="black"/>
<path d="M78.862 15.9579C77.7035 15.9335 76.5475 15.8411 75.3999 15.6812C76.7196 15.1971 77.9694 14.54 79.1161 13.727C79.3527 13.5572 79.5454 13.3332 79.678 13.0738C79.8106 12.8145 79.8794 12.5273 79.8786 12.236V11.2025H66.8547C66.9684 10.9637 67.0684 10.7185 67.1541 10.4683H64.7086C64.4063 10.9964 63.972 11.437 63.4483 11.7469C62.9245 12.0569 62.3293 12.2253 61.7208 12.236V14.3991C62.3915 14.4058 63.0578 14.2891 63.6863 14.0546C64.7206 14.69 65.8092 15.2325 66.9395 15.6755C65.7827 15.8396 64.6172 15.934 63.4491 15.9579H60.1338V16.9067C60.1397 17.144 60.2393 17.3692 60.4107 17.5332C60.5821 17.6972 60.8115 17.7867 61.0487 17.7822H63.4209C66.0203 17.7629 68.6109 17.479 71.1527 16.935C73.6835 17.5004 76.2689 17.7845 78.862 17.7822H81.2398C81.357 17.7844 81.4734 17.7635 81.5826 17.7208C81.6917 17.678 81.7913 17.6142 81.8758 17.5328C81.9602 17.4515 82.0278 17.3544 82.0747 17.247C82.1216 17.1395 82.1469 17.024 82.1491 16.9067V15.9579H78.862ZM65.4879 13.0324H76.8175L76.3374 13.2526C74.669 13.9863 72.9324 14.5538 71.1527 14.9469C71.1527 14.9469 67.4759 14.0772 65.4879 13.0324Z" fill="black"/>
<path d="M64.3193 8.28315H77.987V10.4858H81.4773V7.35121C81.4714 7.11555 81.3725 6.89179 81.2021 6.72878C81.0318 6.56586 80.8038 6.47687 80.5681 6.48149H72.8984V5.63428H69.4079V6.48149H61.7382C61.5025 6.47687 61.2745 6.56586 61.1041 6.72878C60.9338 6.89179 60.8349 7.11555 60.8289 7.35121V10.4858H64.3193V8.28315Z" fill="black"/>
<path d="M79.4666 18.5109H62.7039C62.585 18.5064 62.4664 18.5255 62.355 18.5672C62.2437 18.6088 62.1416 18.6723 62.0549 18.7537C61.9682 18.8352 61.8985 18.933 61.85 19.0416C61.8014 19.1502 61.7749 19.2674 61.772 19.3863V23.5939C61.778 23.8311 61.8775 24.0563 62.0489 24.2203C62.2203 24.3843 62.4497 24.4739 62.6869 24.4694H79.4497C79.567 24.4716 79.6834 24.4507 79.7926 24.408C79.9017 24.3651 80.0013 24.3013 80.0857 24.22C80.1702 24.1387 80.2378 24.0416 80.2846 23.9342C80.3315 23.8267 80.3568 23.7111 80.359 23.5939V19.3863C80.3546 19.1525 80.2586 18.9299 80.0917 18.7662C79.9248 18.6025 79.7004 18.5108 79.4666 18.5109ZM76.8856 22.6451H65.2793V20.3351H76.8856V22.6451Z" fill="black"/>
<path d="M88.2827 8.35601H93.0887V19.759H95.7776V7.45805C95.7831 7.21925 95.6945 6.98783 95.5311 6.81429C95.3668 6.64075 95.1407 6.53912 94.9016 6.53174H86.4697C86.231 6.53912 86.005 6.64075 85.8409 6.81429C85.6769 6.98783 85.5882 7.21925 85.5943 7.45805V19.759H88.2827V8.35601Z" fill="black"/>
<path d="M102.77 8.80275V5.63428H100.081V13.5413H97.9182C97.7955 13.5411 97.6736 13.566 97.5601 13.6146C97.4475 13.6631 97.345 13.7343 97.2601 13.8236C97.1761 13.913 97.1105 14.0187 97.0681 14.1343C97.0256 14.2498 97.0071 14.3729 97.0145 14.4957V23.5323C97.0099 23.6538 97.0302 23.7749 97.0736 23.8885C97.117 24.002 97.1825 24.1057 97.2665 24.1933C97.3515 24.2808 97.4521 24.3504 97.5647 24.3979C97.6764 24.4455 97.7964 24.4698 97.9182 24.4698H106.39C106.624 24.4524 106.842 24.345 106.998 24.17C107.154 23.9951 107.235 23.7664 107.226 23.5323V14.4957C107.232 14.257 107.143 14.0255 106.979 13.852C106.815 13.6784 106.589 13.5769 106.351 13.5695H102.77V10.6269H106.881C107.12 10.6195 107.346 10.518 107.51 10.3445C107.674 10.1709 107.763 9.93942 107.756 9.70072V8.80275H102.77ZM104.538 22.6456H99.7025V15.3655H104.538V22.6456Z" fill="black"/>
<path d="M94.4335 20.9787C94.0846 20.9594 93.7384 21.0453 93.4393 21.225C93.1403 21.4047 92.9012 21.6701 92.7544 21.9868C92.6076 22.3035 92.5587 22.6571 92.615 23.0017C92.6713 23.3462 92.8292 23.6661 93.0692 23.9198C93.3092 24.1736 93.6193 24.3496 93.9599 24.4251C94.3006 24.5006 94.6569 24.4721 94.9809 24.3434C95.3058 24.2146 95.5846 23.9914 95.7803 23.7026C95.9769 23.414 96.0821 23.073 96.083 22.7239C96.0895 22.5009 96.0516 22.2787 95.9732 22.0702C95.8938 21.8617 95.7738 21.6709 95.6206 21.5088C95.4673 21.3466 95.2836 21.2162 95.0796 21.1253C94.8766 21.0344 94.6569 20.9846 94.4335 20.9787Z" fill="black"/>
<path d="M92.904 13.9307H92.8579V13.9766H92.904V13.9307Z" fill="#479344"/>
<path d="M89.3557 9.81299V18.906C89.3628 19.3266 89.2819 19.744 89.1185 20.1316C88.8455 20.7486 88.3606 21.2474 87.7517 21.5379H87.7122C87.347 21.7122 86.9477 21.8028 86.5431 21.8034H85.3514V23.2887C85.336 23.5846 85.4373 23.8746 85.6337 24.0964C85.8145 24.2872 86.0562 24.409 86.3171 24.4409H86.5826C88.0375 24.4409 89.433 23.8633 90.4624 22.835C91.4917 21.8067 92.0707 20.4118 92.0723 18.9568V9.81299H89.3557Z" fill="black"/>
<defs>
<linearGradient id="paint0_linear_335_14863" x1="7.68847" y1="24.3056" x2="25.8237" y2="17.483" gradientUnits="userSpaceOnUse">
<stop stop-color="#173DF3"/>
<stop offset="0.26" stop-color="#1A42F3"/>
<stop offset="0.57" stop-color="#2251F3"/>
<stop offset="0.91" stop-color="#2F69F4"/>
<stop offset="1" stop-color="#3371F4"/>
</linearGradient>
<linearGradient id="paint1_linear_335_14863" x1="3.69517" y1="13.4279" x2="22.0111" y2="6.68436" gradientUnits="userSpaceOnUse">
<stop stop-color="#173DF3"/>
<stop offset="0.38" stop-color="#204EF3"/>
<stop offset="1" stop-color="#3371F4"/>
</linearGradient>
</defs>
</svg>
