<svg width="64" height="44" viewBox="0 0 64 44" fill="none" xmlns="http://www.w3.org/2000/svg">
<g clip-path="url(#clip0_3453_125374)">
<path d="M21.881 8H18.3546V10.0832H10.5888V8.70224L0.70814 10.102V12.9015L4.94272 12.2983V16.3986H0.70814V19.1981H4.23458L0 32.4982H2.82305L4.94272 25.8482V36H7.76577V19.1981H10.5888V16.3986H7.76577V11.9024L10.5888 11.5018V12.9015H29.6468V10.0832H21.881V8Z" fill="#222529"/>
<path d="M25.4123 19.1986V17.1013V15.7015V14.3018H14.8235V16.399V17.1013V19.1986H17.6466V17.1013H22.5893V19.1986H25.4123Z" fill="#222529"/>
<path d="M10.5887 21.2999V23.3972V35.9998H13.4117V23.3972H26.8236V35.9998H29.6467V23.3972V22.6997V20.5977H10.5887V21.2999Z" fill="#222529"/>
<path d="M17.6466 24.8018H14.8235V30.3961H17.6466V24.8018Z" fill="#222529"/>
<path d="M22.5849 29.6986C22.5849 29.884 22.5109 30.0619 22.3791 30.1935C22.2474 30.325 22.0685 30.3996 21.8815 30.4008H17.6516V33.2003H22.5849C23.3336 33.2003 24.0516 32.9054 24.5811 32.3804C25.1105 31.8554 25.4079 31.1433 25.4079 30.4008V24.8018H22.5849V29.6986Z" fill="#222529"/>
<path d="M38.5821 12.9015H61.176V10.102H51.5948V8H48.0683V10.102H38.5821H35.7638V12.9015V15.7011H38.5821V12.9015Z" fill="#222529"/>
<path d="M56.9363 33.2008H56.5846C54.7964 33.2033 53.0158 32.9688 51.2902 32.5033V19.1843H60.4675V16.3848H39.2899V19.1843H48.4672V31.4994C46.188 30.5033 44.1167 29.0935 42.36 27.3425C42.1652 27.154 41.9798 26.9607 41.7992 26.7628C42.1186 25.1905 42.2905 23.5922 42.3125 21.9885H39.4895C39.4895 22.5399 39.4514 23.0866 39.4039 23.6334C39.0808 27.4335 37.7942 31.091 35.6636 34.2659L37.8736 36.0192C38.8233 34.6331 39.6321 33.157 40.2879 31.6125C40.5303 31.0517 40.7632 30.4861 40.9438 29.9111C45.178 33.8578 50.7736 36.0497 56.5846 36.038H63.9939V33.2385L56.9363 33.2008Z" fill="#222529"/>
<path d="M63.9948 12.9014H61.1765V15.7009H63.9948V12.9014Z" fill="#222529"/>
<path d="M60.4675 23.3975H52.7018V26.197H60.4675V23.3975Z" fill="#222529"/>
</g>
<defs>
<clipPath id="clip0_3453_125374">
<rect width="64" height="28" fill="white" transform="translate(0 8)"/>
</clipPath>
</defs>
</svg>
